<svg width="89" height="24" viewBox="0 0 89 24" fill="none" xmlns="http://www.w3.org/2000/svg">
<path d="M4.10369 19H0.728693L6.87358 1.54545H10.777L16.9304 19H13.5554L8.89347 5.125H8.7571L4.10369 19ZM4.21449 12.1562H13.419V14.696H4.21449V12.1562ZM19.1868 19V5.90909H22.272V19H19.1868ZM20.7379 4.05114C20.2493 4.05114 19.8288 3.8892 19.4766 3.56534C19.1243 3.23579 18.9482 2.84091 18.9482 2.38068C18.9482 1.91477 19.1243 1.51989 19.4766 1.19602C19.8288 0.866477 20.2493 0.701704 20.7379 0.701704C21.2322 0.701704 21.6527 0.866477 21.9993 1.19602C22.3516 1.51989 22.5277 1.91477 22.5277 2.38068C22.5277 2.84091 22.3516 3.23579 21.9993 3.56534C21.6527 3.8892 21.2322 4.05114 20.7379 4.05114ZM25.4446 19V5.90909H28.4361V8.09091H28.5724C28.8111 7.33523 29.2202 6.75284 29.7997 6.34375C30.3849 5.92898 31.0526 5.72159 31.8026 5.72159C31.973 5.72159 32.1634 5.73011 32.3736 5.74716C32.5895 5.75852 32.7685 5.77841 32.9105 5.80682V8.64489C32.7798 8.59943 32.5724 8.55966 32.2884 8.52557C32.0099 8.4858 31.7401 8.46591 31.4787 8.46591C30.9162 8.46591 30.4105 8.58807 29.9616 8.83239C29.5185 9.07102 29.169 9.40341 28.9134 9.82955C28.6577 10.2557 28.5298 10.7472 28.5298 11.304V19H25.4446ZM41.0497 1.54545H44.919L50.1009 14.1932H50.3054L55.4872 1.54545H59.3565V19H56.3224V7.00852H56.1605L51.3366 18.9489H49.0696L44.2457 6.98295H44.0838V19H41.0497V1.54545ZM66.4304 19.2642C65.6009 19.2642 64.8537 19.1165 64.1889 18.821C63.5298 18.5199 63.0071 18.0767 62.6207 17.4915C62.2401 16.9062 62.0497 16.1847 62.0497 15.3267C62.0497 14.5881 62.1861 13.9773 62.4588 13.4943C62.7315 13.0114 63.1037 12.625 63.5753 12.3352C64.0469 12.0455 64.5781 11.8267 65.169 11.679C65.7656 11.5256 66.3821 11.4148 67.0185 11.3466C67.7855 11.267 68.4077 11.196 68.8849 11.1335C69.3622 11.0653 69.7088 10.9631 69.9247 10.8267C70.1463 10.6847 70.2571 10.4659 70.2571 10.1705V10.1193C70.2571 9.47727 70.0668 8.98011 69.6861 8.62784C69.3054 8.27557 68.7571 8.09943 68.0412 8.09943C67.2855 8.09943 66.6861 8.2642 66.2429 8.59375C65.8054 8.9233 65.5099 9.3125 65.3565 9.76136L62.4759 9.35227C62.7031 8.55682 63.0781 7.89205 63.6009 7.35795C64.1236 6.81818 64.7628 6.41477 65.5185 6.14773C66.2741 5.875 67.1094 5.73864 68.0241 5.73864C68.6548 5.73864 69.2827 5.8125 69.9077 5.96023C70.5327 6.10795 71.1037 6.35227 71.6207 6.69318C72.1378 7.02841 72.5526 7.4858 72.8651 8.06534C73.1832 8.64489 73.3423 9.36932 73.3423 10.2386V19H70.3764V17.2017H70.2741C70.0866 17.5653 69.8224 17.9062 69.4815 18.2244C69.1463 18.5369 68.723 18.7898 68.2116 18.983C67.706 19.1705 67.1122 19.2642 66.4304 19.2642ZM67.2315 16.9972C67.8509 16.9972 68.3878 16.875 68.8423 16.6307C69.2969 16.3807 69.6463 16.0511 69.8906 15.642C70.1406 15.233 70.2656 14.7869 70.2656 14.304V12.7614C70.169 12.8409 70.0043 12.9148 69.7713 12.983C69.544 13.0511 69.2884 13.1108 69.0043 13.1619C68.7202 13.2131 68.4389 13.2585 68.1605 13.2983C67.8821 13.3381 67.6406 13.3722 67.4361 13.4006C66.9759 13.4631 66.5639 13.5653 66.2003 13.7074C65.8366 13.8494 65.5497 14.0483 65.3395 14.304C65.1293 14.554 65.0241 14.8778 65.0241 15.2756C65.0241 15.8438 65.2315 16.2727 65.6463 16.5625C66.0611 16.8523 66.5895 16.9972 67.2315 16.9972ZM76.4446 23.9091V5.90909H79.4787V8.07386H79.6577C79.8168 7.75568 80.0412 7.41761 80.331 7.05966C80.6207 6.69602 81.0128 6.38636 81.5071 6.13068C82.0014 5.86932 82.6321 5.73864 83.3991 5.73864C84.4105 5.73864 85.3224 5.99716 86.1349 6.5142C86.9531 7.02557 87.6009 7.78409 88.0781 8.78977C88.5611 9.78977 88.8026 11.017 88.8026 12.4716C88.8026 13.9091 88.5668 15.1307 88.0952 16.1364C87.6236 17.142 86.9815 17.9091 86.169 18.4375C85.3565 18.9659 84.4361 19.2301 83.4077 19.2301C82.6577 19.2301 82.0355 19.1051 81.5412 18.8551C81.0469 18.6051 80.6491 18.304 80.348 17.9517C80.0526 17.5937 79.8224 17.2557 79.6577 16.9375H79.5298V23.9091H76.4446ZM79.4702 12.4545C79.4702 13.3011 79.5895 14.0426 79.8281 14.679C80.0724 15.3153 80.4219 15.8125 80.8764 16.1705C81.3366 16.5227 81.8935 16.6989 82.5469 16.6989C83.2287 16.6989 83.7997 16.517 84.2599 16.1534C84.7202 15.7841 85.0668 15.2812 85.2997 14.6449C85.5384 14.0028 85.6577 13.2727 85.6577 12.4545C85.6577 11.642 85.5412 10.9205 85.3082 10.2898C85.0753 9.65909 84.7287 9.16477 84.2685 8.80682C83.8082 8.44886 83.2344 8.26989 82.5469 8.26989C81.8878 8.26989 81.3281 8.44318 80.8679 8.78977C80.4077 9.13636 80.0582 9.62216 79.8196 10.2472C79.5866 10.8722 79.4702 11.608 79.4702 12.4545Z" fill="black"/>
</svg>
