<svg width="98" height="16" viewBox="0 0 98 16" fill="none" xmlns="http://www.w3.org/2000/svg">
<path d="M2.44127 12H0.331898L4.17245 1.09091H6.61208L10.458 12H8.34859L5.43488 3.32812H5.34965L2.44127 12ZM2.51052 7.72266H8.26336V9.31001H2.51052V7.72266ZM11.8682 12V3.81818H13.7965V12H11.8682ZM12.8377 2.65696C12.5323 2.65696 12.2695 2.55575 12.0493 2.35334C11.8291 2.14737 11.7191 1.90057 11.7191 1.61293C11.7191 1.32173 11.8291 1.07493 12.0493 0.872513C12.2695 0.666548 12.5323 0.563565 12.8377 0.563565C13.1466 0.563565 13.4094 0.666548 13.626 0.872513C13.8462 1.07493 13.9563 1.32173 13.9563 1.61293C13.9563 1.90057 13.8462 2.14737 13.626 2.35334C13.4094 2.55575 13.1466 2.65696 12.8377 2.65696ZM15.7793 12V3.81818H17.649V5.18182H17.7342C17.8834 4.70952 18.1391 4.34553 18.5013 4.08984C18.8671 3.83061 19.2843 3.70099 19.7531 3.70099C19.8596 3.70099 19.9786 3.70632 20.11 3.71697C20.2449 3.72408 20.3568 3.73651 20.4455 3.75426V5.52805C20.3639 5.49964 20.2342 5.47479 20.0567 5.45348C19.8827 5.42862 19.714 5.41619 19.5506 5.41619C19.1991 5.41619 18.883 5.49254 18.6025 5.64524C18.3255 5.79439 18.1071 6.00213 17.9473 6.26847C17.7875 6.5348 17.7076 6.84197 17.7076 7.18999V12H15.7793ZM31.4612 4.08984C31.4114 3.62464 31.2019 3.26243 30.8326 3.0032C30.4668 2.74396 29.991 2.61435 29.4051 2.61435C28.9931 2.61435 28.6398 2.67649 28.345 2.80078C28.0503 2.92507 27.8248 3.09375 27.6685 3.30682C27.5123 3.51989 27.4324 3.76314 27.4288 4.03658C27.4288 4.26385 27.4803 4.46094 27.5833 4.62784C27.6899 4.79474 27.8337 4.93679 28.0148 5.05398C28.1959 5.16761 28.3965 5.26349 28.6167 5.34162C28.8369 5.41974 29.0588 5.48544 29.2825 5.53871L30.3053 5.79439C30.7172 5.89027 31.1131 6.01989 31.4931 6.18324C31.8766 6.34659 32.2193 6.55256 32.5212 6.80114C32.8266 7.04972 33.068 7.34979 33.2456 7.70135C33.4232 8.05291 33.5119 8.46484 33.5119 8.93714C33.5119 9.57635 33.3486 10.1392 33.0219 10.6257C32.6952 11.1087 32.2229 11.4869 31.605 11.7603C30.9906 12.0302 30.2467 12.1651 29.3731 12.1651C28.5244 12.1651 27.7875 12.0337 27.1625 11.771C26.5411 11.5082 26.0546 11.1246 25.703 10.6204C25.355 10.1161 25.1668 9.50178 25.1384 8.77734H27.0826C27.111 9.15732 27.2282 9.47337 27.4342 9.7255C27.6401 9.97763 27.9082 10.1658 28.2385 10.2901C28.5723 10.4144 28.9452 10.4766 29.3571 10.4766C29.7868 10.4766 30.1632 10.4126 30.4864 10.2848C30.8131 10.1534 31.0688 9.9723 31.2534 9.74148C31.4381 9.5071 31.5322 9.23366 31.5357 8.92116C31.5322 8.63707 31.4487 8.4027 31.2854 8.21804C31.122 8.02983 30.893 7.87358 30.5982 7.74929C30.307 7.62145 29.9661 7.50781 29.5755 7.40838L28.3344 7.08878C27.4359 6.85795 26.7257 6.50817 26.2037 6.03942C25.6852 5.56712 25.426 4.94034 25.426 4.15909C25.426 3.51633 25.6 2.95348 25.948 2.47053C26.2996 1.98757 26.7772 1.61293 27.3809 1.34659C27.9846 1.0767 28.6682 0.941761 29.4317 0.941761C30.2058 0.941761 30.8841 1.0767 31.4665 1.34659C32.0524 1.61293 32.5123 1.98402 32.8461 2.45987C33.1799 2.93217 33.3521 3.4755 33.3628 4.08984H31.4612ZM40.4034 8.55895V3.81818H42.3316V12H40.462V10.5458H40.3767C40.1921 11.0039 39.8884 11.3786 39.4659 11.6697C39.0468 11.9609 38.5301 12.1065 37.9158 12.1065C37.3796 12.1065 36.9055 11.9876 36.4936 11.7496C36.0852 11.5082 35.7656 11.1584 35.5348 10.7003C35.3039 10.2386 35.1885 9.68111 35.1885 9.0277V3.81818H37.1168V8.7294C37.1168 9.24787 37.2588 9.6598 37.5429 9.9652C37.827 10.2706 38.1999 10.4233 38.6615 10.4233C38.9456 10.4233 39.2208 10.354 39.4872 10.2156C39.7535 10.0771 39.9719 9.87109 40.1424 9.59766C40.3164 9.32067 40.4034 8.97443 40.4034 8.55895ZM44.3145 15.0682V3.81818H46.2108V5.17116H46.3227C46.4221 4.9723 46.5624 4.76101 46.7435 4.53729C46.9246 4.31001 47.1696 4.11648 47.4786 3.95668C47.7875 3.79332 48.1817 3.71165 48.6611 3.71165C49.2932 3.71165 49.8631 3.87322 50.371 4.19638C50.8823 4.51598 51.2872 4.99006 51.5854 5.61861C51.8873 6.24361 52.0382 7.01065 52.0382 7.91974C52.0382 8.81818 51.8908 9.58168 51.5961 10.2102C51.3014 10.8388 50.9001 11.3182 50.3923 11.6484C49.8845 11.9787 49.3092 12.1438 48.6664 12.1438C48.1977 12.1438 47.8088 12.0657 47.4999 11.9094C47.1909 11.7532 46.9423 11.565 46.7541 11.3448C46.5695 11.1211 46.4256 10.9098 46.3227 10.7109H46.2428V15.0682H44.3145ZM46.2055 7.90909C46.2055 8.43821 46.2801 8.90163 46.4292 9.29936C46.5819 9.69709 46.8003 10.0078 47.0844 10.2315C47.372 10.4517 47.72 10.5618 48.1284 10.5618C48.5546 10.5618 48.9114 10.4482 49.1991 10.2209C49.4867 9.99006 49.7033 9.67578 49.8489 9.27805C49.9981 8.87678 50.0727 8.42045 50.0727 7.90909C50.0727 7.40128 49.9999 6.95028 49.8543 6.55611C49.7087 6.16193 49.4921 5.85298 49.2044 5.62926C48.9168 5.40554 48.5581 5.29368 48.1284 5.29368C47.7165 5.29368 47.3667 5.40199 47.0791 5.61861C46.7914 5.83523 46.573 6.13885 46.4239 6.52947C46.2783 6.9201 46.2055 7.37997 46.2055 7.90909ZM53.6895 15.0682V3.81818H55.5858V5.17116H55.6977C55.7971 4.9723 55.9374 4.76101 56.1185 4.53729C56.2996 4.31001 56.5446 4.11648 56.8536 3.95668C57.1625 3.79332 57.5567 3.71165 58.0361 3.71165C58.6682 3.71165 59.2381 3.87322 59.746 4.19638C60.2573 4.51598 60.6622 4.99006 60.9604 5.61861C61.2623 6.24361 61.4132 7.01065 61.4132 7.91974C61.4132 8.81818 61.2658 9.58168 60.9711 10.2102C60.6764 10.8388 60.2751 11.3182 59.7673 11.6484C59.2595 11.9787 58.6842 12.1438 58.0414 12.1438C57.5727 12.1438 57.1838 12.0657 56.8749 11.9094C56.5659 11.7532 56.3173 11.565 56.1291 11.3448C55.9445 11.1211 55.8006 10.9098 55.6977 10.7109H55.6178V15.0682H53.6895ZM55.5805 7.90909C55.5805 8.43821 55.6551 8.90163 55.8042 9.29936C55.9569 9.69709 56.1753 10.0078 56.4594 10.2315C56.747 10.4517 57.095 10.5618 57.5034 10.5618C57.9296 10.5618 58.2864 10.4482 58.5741 10.2209C58.8617 9.99006 59.0783 9.67578 59.2239 9.27805C59.3731 8.87678 59.4477 8.42045 59.4477 7.90909C59.4477 7.40128 59.3749 6.95028 59.2293 6.55611C59.0837 6.16193 58.8671 5.85298 58.5794 5.62926C58.2918 5.40554 57.9331 5.29368 57.5034 5.29368C57.0915 5.29368 56.7417 5.40199 56.4541 5.61861C56.1664 5.83523 55.948 6.13885 55.7989 6.52947C55.6533 6.9201 55.5805 7.37997 55.5805 7.90909ZM66.6334 12.1598C65.8344 12.1598 65.1419 11.984 64.556 11.6325C63.97 11.2809 63.5155 10.7891 63.1923 10.157C62.8727 9.52486 62.7129 8.78622 62.7129 7.94105C62.7129 7.09588 62.8727 6.35547 63.1923 5.71982C63.5155 5.08416 63.97 4.59055 64.556 4.23899C65.1419 3.88743 65.8344 3.71165 66.6334 3.71165C67.4324 3.71165 68.1249 3.88743 68.7108 4.23899C69.2967 4.59055 69.7495 5.08416 70.0691 5.71982C70.3923 6.35547 70.5538 7.09588 70.5538 7.94105C70.5538 8.78622 70.3923 9.52486 70.0691 10.157C69.7495 10.7891 69.2967 11.2809 68.7108 11.6325C68.1249 11.984 67.4324 12.1598 66.6334 12.1598ZM66.644 10.6151C67.0773 10.6151 67.4395 10.4961 67.7307 10.2582C68.0219 10.0167 68.2385 9.69354 68.3805 9.28871C68.5261 8.88388 68.5989 8.43288 68.5989 7.93572C68.5989 7.43501 68.5261 6.98224 68.3805 6.57741C68.2385 6.16903 68.0219 5.84411 67.7307 5.60263C67.4395 5.36115 67.0773 5.24041 66.644 5.24041C66.2002 5.24041 65.8308 5.36115 65.5361 5.60263C65.2449 5.84411 65.0265 6.16903 64.8809 6.57741C64.7389 6.98224 64.6678 7.43501 64.6678 7.93572C64.6678 8.43288 64.7389 8.88388 64.8809 9.28871C65.0265 9.69354 65.2449 10.0167 65.5361 10.2582C65.8308 10.4961 66.2002 10.6151 66.644 10.6151ZM72.1905 12V3.81818H74.0601V5.18182H74.1454C74.2945 4.70952 74.5502 4.34553 74.9124 4.08984C75.2782 3.83061 75.6954 3.70099 76.1642 3.70099C76.2707 3.70099 76.3897 3.70632 76.5211 3.71697C76.656 3.72408 76.7679 3.73651 76.8567 3.75426V5.52805C76.775 5.49964 76.6454 5.47479 76.4678 5.45348C76.2938 5.42862 76.1251 5.41619 75.9618 5.41619C75.6102 5.41619 75.2942 5.49254 75.0136 5.64524C74.7366 5.79439 74.5182 6.00213 74.3584 6.26847C74.1986 6.5348 74.1187 6.84197 74.1187 7.18999V12H72.1905ZM82.6628 3.81818V5.30966H77.9593V3.81818H82.6628ZM79.1205 1.85795H81.0488V9.53906C81.0488 9.7983 81.0878 9.99716 81.166 10.1357C81.2476 10.2706 81.3542 10.3629 81.4856 10.4126C81.617 10.4624 81.7626 10.4872 81.9224 10.4872C82.0431 10.4872 82.1532 10.4783 82.2526 10.4606C82.3556 10.4428 82.4337 10.4268 82.487 10.4126L82.8119 11.9201C82.7089 11.9556 82.5616 11.9947 82.3698 12.0373C82.1816 12.0799 81.9508 12.1048 81.6773 12.1119C81.1944 12.1261 80.7594 12.0533 80.3723 11.8935C79.9852 11.7301 79.678 11.478 79.4508 11.1371C79.2271 10.7962 79.117 10.37 79.1205 9.85866V1.85795ZM87.8097 12.1598C86.9894 12.1598 86.2809 11.9893 85.6843 11.6484C85.0913 11.304 84.635 10.8175 84.3154 10.1889C83.9958 9.55682 83.836 8.81286 83.836 7.95703C83.836 7.11541 83.9958 6.37678 84.3154 5.74112C84.6385 5.10192 85.0895 4.60476 85.6684 4.24964C86.2472 3.89098 86.9272 3.71165 87.7085 3.71165C88.2128 3.71165 88.6886 3.79332 89.1361 3.95668C89.587 4.11648 89.9848 4.36506 90.3292 4.70241C90.6772 5.03977 90.9507 5.46946 91.1495 5.99148C91.3484 6.50994 91.4478 7.12784 91.4478 7.84517V8.43643H84.7415V7.13672H89.5995C89.5959 6.7674 89.516 6.43892 89.3598 6.15128C89.2035 5.86009 88.9851 5.63104 88.7046 5.46413C88.4276 5.29723 88.1044 5.21378 87.7351 5.21378C87.341 5.21378 86.9947 5.30966 86.6964 5.50142C86.3981 5.68963 86.1655 5.93821 85.9986 6.24716C85.8353 6.55256 85.7518 6.88814 85.7483 7.25391V8.38849C85.7483 8.86435 85.8353 9.27273 86.0093 9.61364C86.1833 9.95099 86.4265 10.2102 86.739 10.3913C87.0515 10.5689 87.4173 10.6577 87.8363 10.6577C88.1169 10.6577 88.3708 10.6186 88.5981 10.5405C88.8253 10.4588 89.0224 10.3398 89.1893 10.1836C89.3562 10.0273 89.4823 9.83381 89.5675 9.60298L91.3679 9.8054C91.2543 10.2812 91.0377 10.6967 90.7181 11.0518C90.402 11.4034 89.9972 11.6768 89.5036 11.8722C89.01 12.0639 88.4454 12.1598 87.8097 12.1598ZM93.0791 12V3.81818H94.9488V5.18182H95.034C95.1832 4.70952 95.4389 4.34553 95.8011 4.08984C96.1669 3.83061 96.5841 3.70099 97.0529 3.70099C97.1594 3.70099 97.2784 3.70632 97.4098 3.71697C97.5447 3.72408 97.6566 3.73651 97.7453 3.75426V5.52805C97.6637 5.49964 97.534 5.47479 97.3565 5.45348C97.1825 5.42862 97.0138 5.41619 96.8505 5.41619C96.4989 5.41619 96.1828 5.49254 95.9023 5.64524C95.6253 5.79439 95.4069 6.00213 95.2471 6.26847C95.0873 6.5348 95.0074 6.84197 95.0074 7.18999V12H93.0791Z" fill="black"/>
</svg>
