<svg width="97" height="32" viewBox="0 0 97 32" fill="none" xmlns="http://www.w3.org/2000/svg">
<g filter="url(#filter0_d_402_12)">
<path d="M8.10369 19H4.72869L10.8736 1.54545H14.777L20.9304 19H17.5554L12.8935 5.125H12.7571L8.10369 19ZM8.21449 12.1562H17.419V14.696H8.21449V12.1562ZM23.1868 19V5.90909H26.272V19H23.1868ZM24.7379 4.05114C24.2493 4.05114 23.8288 3.8892 23.4766 3.56534C23.1243 3.23579 22.9482 2.84091 22.9482 2.38068C22.9482 1.91477 23.1243 1.51989 23.4766 1.19602C23.8288 0.866477 24.2493 0.701704 24.7379 0.701704C25.2322 0.701704 25.6527 0.866477 25.9993 1.19602C26.3516 1.51989 26.5277 1.91477 26.5277 2.38068C26.5277 2.84091 26.3516 3.23579 25.9993 3.56534C25.6527 3.8892 25.2322 4.05114 24.7379 4.05114ZM29.4446 19V5.90909H32.4361V8.09091H32.5724C32.8111 7.33523 33.2202 6.75284 33.7997 6.34375C34.3849 5.92898 35.0526 5.72159 35.8026 5.72159C35.973 5.72159 36.1634 5.73011 36.3736 5.74716C36.5895 5.75852 36.7685 5.77841 36.9105 5.80682V8.64489C36.7798 8.59943 36.5724 8.55966 36.2884 8.52557C36.0099 8.4858 35.7401 8.46591 35.4787 8.46591C34.9162 8.46591 34.4105 8.58807 33.9616 8.83239C33.5185 9.07102 33.169 9.40341 32.9134 9.82955C32.6577 10.2557 32.5298 10.7472 32.5298 11.304V19H29.4446ZM45.0497 1.54545H48.919L54.1009 14.1932H54.3054L59.4872 1.54545H63.3565V19H60.3224V7.00852H60.1605L55.3366 18.9489H53.0696L48.2457 6.98295H48.0838V19H45.0497V1.54545ZM70.4304 19.2642C69.6009 19.2642 68.8537 19.1165 68.1889 18.821C67.5298 18.5199 67.0071 18.0767 66.6207 17.4915C66.2401 16.9062 66.0497 16.1847 66.0497 15.3267C66.0497 14.5881 66.1861 13.9773 66.4588 13.4943C66.7315 13.0114 67.1037 12.625 67.5753 12.3352C68.0469 12.0455 68.5781 11.8267 69.169 11.679C69.7656 11.5256 70.3821 11.4148 71.0185 11.3466C71.7855 11.267 72.4077 11.196 72.8849 11.1335C73.3622 11.0653 73.7088 10.9631 73.9247 10.8267C74.1463 10.6847 74.2571 10.4659 74.2571 10.1705V10.1193C74.2571 9.47727 74.0668 8.98011 73.6861 8.62784C73.3054 8.27557 72.7571 8.09943 72.0412 8.09943C71.2855 8.09943 70.6861 8.2642 70.2429 8.59375C69.8054 8.9233 69.5099 9.3125 69.3565 9.76136L66.4759 9.35227C66.7031 8.55682 67.0781 7.89205 67.6009 7.35795C68.1236 6.81818 68.7628 6.41477 69.5185 6.14773C70.2741 5.875 71.1094 5.73864 72.0241 5.73864C72.6548 5.73864 73.2827 5.8125 73.9077 5.96023C74.5327 6.10795 75.1037 6.35227 75.6207 6.69318C76.1378 7.02841 76.5526 7.4858 76.8651 8.06534C77.1832 8.64489 77.3423 9.36932 77.3423 10.2386V19H74.3764V17.2017H74.2741C74.0866 17.5653 73.8224 17.9062 73.4815 18.2244C73.1463 18.5369 72.723 18.7898 72.2116 18.983C71.706 19.1705 71.1122 19.2642 70.4304 19.2642ZM71.2315 16.9972C71.8509 16.9972 72.3878 16.875 72.8423 16.6307C73.2969 16.3807 73.6463 16.0511 73.8906 15.642C74.1406 15.233 74.2656 14.7869 74.2656 14.304V12.7614C74.169 12.8409 74.0043 12.9148 73.7713 12.983C73.544 13.0511 73.2884 13.1108 73.0043 13.1619C72.7202 13.2131 72.4389 13.2585 72.1605 13.2983C71.8821 13.3381 71.6406 13.3722 71.4361 13.4006C70.9759 13.4631 70.5639 13.5653 70.2003 13.7074C69.8366 13.8494 69.5497 14.0483 69.3395 14.304C69.1293 14.554 69.0241 14.8778 69.0241 15.2756C69.0241 15.8438 69.2315 16.2727 69.6463 16.5625C70.0611 16.8523 70.5895 16.9972 71.2315 16.9972ZM80.4446 23.9091V5.90909H83.4787V8.07386H83.6577C83.8168 7.75568 84.0412 7.41761 84.331 7.05966C84.6207 6.69602 85.0128 6.38636 85.5071 6.13068C86.0014 5.86932 86.6321 5.73864 87.3991 5.73864C88.4105 5.73864 89.3224 5.99716 90.1349 6.5142C90.9531 7.02557 91.6009 7.78409 92.0781 8.78977C92.5611 9.78977 92.8026 11.017 92.8026 12.4716C92.8026 13.9091 92.5668 15.1307 92.0952 16.1364C91.6236 17.142 90.9815 17.9091 90.169 18.4375C89.3565 18.9659 88.4361 19.2301 87.4077 19.2301C86.6577 19.2301 86.0355 19.1051 85.5412 18.8551C85.0469 18.6051 84.6491 18.304 84.348 17.9517C84.0526 17.5937 83.8224 17.2557 83.6577 16.9375H83.5298V23.9091H80.4446ZM83.4702 12.4545C83.4702 13.3011 83.5895 14.0426 83.8281 14.679C84.0724 15.3153 84.4219 15.8125 84.8764 16.1705C85.3366 16.5227 85.8935 16.6989 86.5469 16.6989C87.2287 16.6989 87.7997 16.517 88.2599 16.1534C88.7202 15.7841 89.0668 15.2812 89.2997 14.6449C89.5384 14.0028 89.6577 13.2727 89.6577 12.4545C89.6577 11.642 89.5412 10.9205 89.3082 10.2898C89.0753 9.65909 88.7287 9.16477 88.2685 8.80682C87.8082 8.44886 87.2344 8.26989 86.5469 8.26989C85.8878 8.26989 85.3281 8.44318 84.8679 8.78977C84.4077 9.13636 84.0582 9.62216 83.8196 10.2472C83.5866 10.8722 83.4702 11.608 83.4702 12.4545Z" fill="#E1E1E1"/>
</g>
<defs>
<filter id="filter0_d_402_12" x="0.728638" y="0.701691" width="96.0739" height="31.2074" filterUnits="userSpaceOnUse" color-interpolation-filters="sRGB">
<feFlood flood-opacity="0" result="BackgroundImageFix"/>
<feColorMatrix in="SourceAlpha" type="matrix" values="0 0 0 0 0 0 0 0 0 0 0 0 0 0 0 0 0 0 127 0" result="hardAlpha"/>
<feOffset dy="4"/>
<feGaussianBlur stdDeviation="2"/>
<feComposite in2="hardAlpha" operator="out"/>
<feColorMatrix type="matrix" values="0 0 0 0 0 0 0 0 0 0 0 0 0 0 0 0 0 0 0.25 0"/>
<feBlend mode="normal" in2="BackgroundImageFix" result="effect1_dropShadow_402_12"/>
<feBlend mode="normal" in="SourceGraphic" in2="effect1_dropShadow_402_12" result="shape"/>
</filter>
</defs>
</svg>
