<svg version="1.1" id="Layer_1" xmlns="http://www.w3.org/2000/svg" xmlns:xlink="http://www.w3.org/1999/xlink" x="0px" y="0px"
	 width="100%" viewBox="0 0 1200 1200" enable-background="new 0 0 1200 1200" xml:space="preserve">
<path fill="#47704C" opacity="1.000000" stroke="none" 
	d="
M647.000000,1201.000000 
	C431.333344,1201.000000 216.166672,1201.000000 1.000000,1201.000000 
	C1.000000,801.000000 1.000000,401.000000 1.000000,1.000000 
	C401.000000,1.000000 801.000000,1.000000 1201.000000,1.000000 
	C1201.000000,401.000000 1201.000000,801.000000 1201.000000,1201.000000 
	C1016.500000,1201.000000 832.000000,1201.000000 647.000000,1201.000000 
M240.173065,475.001038 
	C239.383041,474.802094 238.565475,474.676819 237.807022,474.393402 
	C221.293869,468.222565 204.056015,466.801575 187.118713,470.330292 
	C159.405228,476.104095 137.390305,490.719818 122.467705,515.653748 
	C109.878418,536.689026 105.984390,559.233276 110.342354,582.734924 
	C115.141800,608.617493 128.739670,629.572937 150.900558,644.538452 
	C160.810165,651.230469 171.597519,655.854004 183.085358,659.929199 
	C183.018921,661.091431 183.083847,662.278809 182.866257,663.412048 
	C179.798523,679.388672 180.107132,695.313538 183.703049,711.156067 
	C189.367096,736.110046 201.536362,757.178223 220.731079,774.320801 
	C240.607162,792.071899 263.795776,802.312988 290.083435,804.761780 
	C308.127167,806.442566 325.917389,804.203613 343.130310,797.509949 
	C364.588989,789.165283 382.424988,776.231079 396.424866,758.051208 
	C409.576599,740.972717 417.555817,721.755737 420.103241,700.237793 
	C422.152618,682.927185 421.144409,665.979370 415.831116,648.671814 
	C415.891937,646.678955 416.000397,644.686218 416.005310,642.693237 
	C416.026581,634.058472 418.928101,630.147400 427.471344,629.094543 
	C433.040131,628.408264 438.762177,628.965088 445.071838,628.965088 
	C445.651123,625.254456 446.561005,620.919189 446.861450,616.542053 
	C446.945648,615.315796 445.408630,613.025879 444.320435,612.825562 
	C437.133423,611.502625 429.833221,610.591370 423.303802,615.195129 
	C420.604736,617.098145 418.095642,619.270752 415.179962,621.573608 
	C415.029968,618.448914 414.912323,615.998474 414.769073,613.014282 
	C410.004211,613.014282 405.548370,612.915894 401.105164,613.108154 
	C400.335052,613.141418 399.618164,614.404602 398.297638,614.746399 
	C391.152924,607.023560 384.828644,598.275330 376.705383,591.775391 
	C354.753052,574.209778 329.610565,564.501892 301.015137,564.028748 
	C300.079926,556.011902 299.144745,547.995117 299.058258,539.999146 
	C307.618835,540.002136 316.240723,540.660645 324.726807,539.867126 
	C340.716919,538.371704 354.027100,530.412048 365.011505,519.320557 
	C376.416931,507.803955 383.445465,493.414764 384.832977,477.144592 
	C386.951416,452.303558 379.281494,431.003296 359.948547,414.386108 
	C342.490936,399.380798 322.347443,394.152863 299.999786,398.135742 
	C278.592712,401.950989 262.097870,413.388336 250.846039,432.242004 
	C242.938202,445.492462 240.110367,459.812378 240.173065,475.001038 
M823.279358,674.997742 
	C826.587219,675.474304 827.079102,673.635315 827.041931,670.855408 
	C826.924500,662.084290 826.998596,653.310547 826.998596,644.661194 
	C837.724548,642.803162 837.877686,642.879089 842.119995,651.354980 
	C845.528870,658.165771 848.875671,665.009583 852.428711,671.744507 
	C853.111816,673.039307 854.571106,674.734192 855.764160,674.810608 
	C861.002197,675.146118 866.273865,674.955200 872.241150,674.955200 
	C866.018616,662.903320 860.168579,651.572876 854.238342,640.087158 
	C855.258545,639.512939 855.972046,639.137634 856.660034,638.720154 
	C867.312439,632.257507 870.519348,623.387695 868.641418,611.621643 
	C866.712952,599.539185 856.750366,593.231384 846.494995,592.165771 
	C836.462219,591.123352 826.289612,591.501404 816.197021,590.927856 
	C811.467102,590.659058 809.848694,592.123596 809.895691,597.046814 
	C810.125793,621.187988 809.994568,645.332642 810.011536,669.476013 
	C810.012756,671.227661 810.177734,672.979187 810.280212,674.999695 
	C814.696228,674.999695 818.513611,674.999695 823.279358,674.997742 
M490.153229,676.022278 
	C499.927856,677.232910 507.654480,673.007996 512.190613,664.601501 
	C517.498108,654.765625 517.681030,644.538574 516.091125,633.802246 
	C512.825073,611.747192 490.500458,605.958740 477.438599,617.327759 
	C475.473114,612.626465 469.881073,611.411194 461.339661,613.837708 
	C461.339661,642.054077 461.339661,670.273926 461.339661,698.532593 
	C467.042725,698.532593 472.396027,698.532593 478.134094,698.532593 
	C478.134094,689.336121 478.134094,680.602417 478.134094,672.457520 
	C482.009033,673.683777 485.673950,674.843567 490.153229,676.022278 
M886.476318,665.979553 
	C898.503784,680.756287 927.381958,679.130127 936.099304,664.656921 
	C933.734558,661.893311 931.247131,658.986206 928.756104,656.075012 
	C914.997559,668.147461 898.983582,663.065674 896.368225,650.000000 
	C905.728882,650.000000 914.984009,650.000000 924.239075,650.000000 
	C939.509338,650.000000 939.724304,649.960938 936.955261,634.724365 
	C933.562561,616.055725 918.667969,609.105225 901.459351,612.810608 
	C877.287292,618.015503 872.984253,652.041992 886.476318,665.979553 
M528.996521,646.886719 
	C528.833984,657.774719 533.046631,666.645142 542.226685,672.441711 
	C548.451050,676.372009 555.605164,677.165710 563.063782,676.093201 
	C570.684448,674.997314 576.729980,671.821228 581.237610,665.516663 
	C588.061279,655.972839 589.160583,645.238098 586.418823,634.447754 
	C584.982483,628.794617 581.918335,622.712463 577.749207,618.769531 
	C568.708801,610.219421 553.700073,609.602783 542.560852,615.791626 
	C533.001343,621.102905 527.437927,633.489075 528.996521,646.886719 
M954.691406,655.000183 
	C953.240112,655.098999 951.788818,655.197754 948.755798,655.404236 
	C950.623901,659.528748 951.579834,663.212158 953.690430,666.031006 
	C963.645874,679.327148 986.059448,679.040344 998.541626,671.654480 
	C1005.273682,667.670959 1008.522095,658.918152 1005.728455,651.852112 
	C1003.116455,645.245605 997.420959,641.751221 990.679260,640.092590 
	C984.779236,638.641052 978.733765,637.701172 972.949890,635.901245 
	C970.997803,635.293762 968.346741,632.735535 968.356934,631.083191 
	C968.369568,629.025391 970.358032,626.252808 972.281189,625.072144 
	C977.700256,621.744995 985.690125,624.169128 989.225830,629.517151 
	C989.879150,630.505371 991.007019,631.801575 991.975281,631.853821 
	C996.545166,632.100342 1001.135742,631.963684 1007.526794,631.963684 
	C1005.359680,627.339539 1004.262573,623.760803 1002.215637,620.850037 
	C994.358459,609.676880 970.352478,609.299377 960.102173,616.590210 
	C948.413940,624.903748 949.161133,638.910828 960.658508,644.995605 
	C964.825378,647.200867 969.501465,648.493774 974.022461,649.965942 
	C978.533752,651.434998 983.285461,652.252136 987.660583,654.024536 
	C991.028442,655.388794 990.906982,660.583496 987.826355,662.537292 
	C980.280579,667.323181 968.256042,663.480957 964.982666,655.000000 
	C961.937500,655.000000 958.785706,655.000000 954.691406,655.000183 
M1045.515503,674.170471 
	C1051.624634,677.905090 1058.257080,676.220520 1064.733643,675.982361 
	C1075.208862,675.597168 1076.685303,673.777832 1074.995483,663.611633 
	C1074.866577,662.836609 1074.661499,662.074280 1074.486328,661.280945 
	C1070.678711,661.874756 1067.132324,662.589844 1063.550049,662.950928 
	C1057.133301,663.597778 1051.417480,660.571655 1051.202393,655.679138 
	C1050.759888,645.614380 1051.069336,635.516602 1051.069336,624.911011 
	C1058.973267,624.911011 1066.215576,624.911011 1073.560425,624.911011 
	C1073.560425,620.675842 1073.560425,616.990723 1073.560425,612.774170 
	C1065.885742,612.774170 1058.640747,612.774170 1050.881348,612.774170 
	C1050.881348,607.667358 1050.881348,603.083862 1050.881348,598.452637 
	C1044.976562,598.452637 1039.621826,598.452637 1033.740723,598.452637 
	C1033.740723,603.480774 1033.740723,608.057495 1033.740723,613.153931 
	C1028.960693,613.153931 1024.711792,613.153931 1020.294922,613.153931 
	C1020.294922,617.267029 1020.294922,620.838745 1020.294922,625.124451 
	C1024.941895,625.124451 1029.309814,625.124451 1034.000366,625.124451 
	C1034.000366,635.806580 1033.777588,645.781860 1034.071411,655.741882 
	C1034.303223,663.600525 1037.240479,670.212769 1045.515503,674.170471 
M701.000000,630.642090 
	C701.083252,628.880005 701.166565,627.117920 701.274048,624.843506 
	C709.041504,624.843506 716.290222,624.843506 723.696777,624.843506 
	C723.696777,620.722412 723.696777,617.148132 723.696777,612.856934 
	C716.040161,612.856934 708.662598,612.856934 700.775635,612.856934 
	C700.775635,607.558899 700.775635,602.977661 700.775635,598.337341 
	C694.985291,598.337341 689.746216,598.337341 683.966553,598.337341 
	C683.966553,603.242371 683.966553,607.829651 683.966553,613.113647 
	C679.065186,613.113647 674.692749,613.113647 670.370544,613.113647 
	C670.370544,617.415039 670.370544,620.991211 670.370544,625.101624 
	C674.979370,625.101624 679.232727,625.101624 684.000610,625.101624 
	C684.000610,635.758911 683.705566,645.891296 684.094238,655.997437 
	C684.402832,664.020264 687.626892,670.432617 695.471619,674.291626 
	C702.705505,677.850098 710.039612,676.696838 717.226929,675.645447 
	C726.864746,674.235596 726.797791,673.768250 725.022339,664.053772 
	C724.853760,663.131775 724.654297,662.215454 724.465027,661.275757 
	C720.616333,661.875916 717.067261,662.631165 713.479492,662.948730 
	C704.826050,663.714661 700.333679,658.738037 700.890015,651.592468 
	C701.405762,644.968262 701.000000,638.272278 701.000000,630.642090 
M627.015503,620.467957 
	C626.346497,620.204224 625.124939,619.986938 625.098145,619.669128 
	C624.923767,617.596985 625.008545,615.502930 625.008545,613.319031 
	C619.345764,613.319031 614.445557,613.319031 609.401184,613.319031 
	C609.401184,633.966187 609.401184,654.292053 609.401184,674.656921 
	C615.041016,674.656921 620.272217,674.656921 626.000000,674.656921 
	C626.000000,663.550049 625.997986,652.778870 626.000732,642.007690 
	C626.002686,634.177612 629.263000,629.939148 637.104980,629.092346 
	C642.836548,628.473450 648.688599,628.971130 655.019104,628.971130 
	C655.616394,625.478027 656.244751,621.449829 657.007874,617.447388 
	C657.663269,614.010315 655.798584,612.434021 652.851562,612.150208 
	C643.358276,611.235962 634.213745,611.715027 627.015503,620.467957 
z"/>
<path fill="#B2EAF9" opacity="1.000000" stroke="none" 
	d="
M415.718079,649.361938 
	C421.144409,665.979370 422.152618,682.927185 420.103241,700.237793 
	C417.555817,721.755737 409.576599,740.972717 396.424866,758.051208 
	C382.424988,776.231079 364.588989,789.165283 343.130310,797.509949 
	C325.917389,804.203613 308.127167,806.442566 290.083435,804.761780 
	C263.795776,802.312988 240.607162,792.071899 220.731079,774.320801 
	C201.536362,757.178223 189.367096,736.110046 183.703049,711.156067 
	C180.107132,695.313538 179.798523,679.388672 182.866257,663.412048 
	C183.083847,662.278809 183.018921,661.091431 183.489014,659.487610 
	C184.556656,659.047974 185.244141,658.936279 185.881195,659.068298 
	C207.624207,663.571716 228.302795,660.433716 248.107208,650.596436 
	C249.409332,649.949585 251.156921,650.199585 252.664215,650.377197 
	C249.982025,658.670227 247.332932,666.618530 244.612274,674.781555 
	C250.628769,674.781555 256.068390,674.781555 261.543335,674.781555 
	C263.195709,669.064514 264.791382,663.543701 266.470886,657.732788 
	C273.389404,657.732788 280.194824,657.961426 286.973969,657.638672 
	C290.494385,657.471069 291.904633,658.631653 292.610687,662.000488 
	C293.519653,666.337708 295.041412,670.546570 296.303802,674.826172 
	C301.854401,674.826172 307.296722,674.826172 313.015442,674.826172 
	C311.706482,670.651184 310.485138,666.713745 309.237793,662.784485 
	C303.234222,643.872559 297.223663,624.962891 291.455566,605.805664 
	C298.104614,592.779785 300.369812,579.044067 301.070892,564.947266 
	C329.610565,564.501892 354.753052,574.209778 376.705383,591.775391 
	C384.828644,598.275330 391.152924,607.023560 398.643982,615.384521 
	C398.990356,635.613098 398.990356,655.203491 398.990356,674.862976 
	C404.910126,674.862976 409.887909,674.862976 415.718079,674.862976 
	C415.718079,666.271118 415.718079,657.816528 415.718079,649.361938 
M348.449615,613.039062 
	C340.790009,613.039062 333.130371,613.039062 325.502258,613.039062 
	C325.502258,617.717041 325.502258,621.657166 325.502258,626.085938 
	C331.290985,626.085938 336.869293,626.085938 342.637939,626.085938 
	C342.637939,638.291992 342.637939,650.001099 342.637939,662.148438 
	C336.775574,662.148438 331.193634,662.148438 325.601501,662.148438 
	C325.601501,666.658386 325.601501,670.720520 325.601501,674.781982 
	C342.371765,674.781982 358.809723,674.781982 375.459045,674.781982 
	C375.459045,670.494446 375.459045,666.431763 375.459045,661.983154 
	C369.939514,661.983154 364.678375,661.983154 358.859802,661.983154 
	C358.859802,645.575012 358.859802,629.545044 358.859802,613.195129 
	C355.338379,613.195129 352.384155,613.195129 348.449615,613.039062 
M357.316223,591.123230 
	C351.680084,587.713501 345.920013,588.326965 343.210724,592.625488 
	C340.937897,596.231506 341.459961,600.983154 344.413239,603.570312 
	C347.732941,606.478516 354.218292,606.571289 357.355286,603.755371 
	C360.788971,600.673157 360.964539,596.611389 357.316223,591.123230 
z"/>
<path fill="#AEA1EA" opacity="1.000000" stroke="none" 
	d="
M301.043030,564.488037 
	C300.369812,579.044067 298.104614,592.779785 291.329041,605.432251 
	C290.531952,604.054199 290.095215,602.804932 289.671814,601.551147 
	C286.357361,591.736511 286.355865,591.904114 275.874512,591.760193 
	C272.492462,591.713806 271.427032,593.052551 270.471191,595.988281 
	C264.801056,613.402832 258.906372,630.744324 252.882446,648.265381 
	C252.508408,648.716797 252.339127,649.013123 252.440887,649.388672 
	C252.707062,649.656006 252.702179,649.844177 252.697311,650.032410 
	C251.156921,650.199585 249.409332,649.949585 248.107208,650.596436 
	C228.302795,660.433716 207.624207,663.571716 185.881195,659.068298 
	C185.244141,658.936279 184.556656,659.047974 183.469849,659.061279 
	C171.597519,655.854004 160.810165,651.230469 150.900558,644.538452 
	C128.739670,629.572937 115.141800,608.617493 110.342354,582.734924 
	C105.984390,559.233276 109.878418,536.689026 122.467705,515.653748 
	C137.390305,490.719818 159.405228,476.104095 187.118713,470.330292 
	C204.056015,466.801575 221.293869,468.222565 237.807022,474.393402 
	C238.565475,474.676819 239.383041,474.802094 240.617493,475.416595 
	C241.378387,477.450562 241.711090,479.066010 242.008881,480.687866 
	C245.666901,500.610779 255.027451,517.128296 272.402435,527.950745 
	C280.399384,532.931885 289.570709,536.027649 298.209534,539.978271 
	C299.144745,547.995117 300.079926,556.011902 301.043030,564.488037 
z"/>
<path fill="#8C54A1" opacity="1.000000" stroke="none" 
	d="
M298.633911,539.988708 
	C289.570709,536.027649 280.399384,532.931885 272.402435,527.950745 
	C255.027451,517.128296 245.666901,500.610779 242.008881,480.687866 
	C241.711090,479.066010 241.378387,477.450562 241.010605,475.432739 
	C240.110367,459.812378 242.938202,445.492462 250.846039,432.242004 
	C262.097870,413.388336 278.592712,401.950989 299.999786,398.135742 
	C322.347443,394.152863 342.490936,399.380798 359.948547,414.386108 
	C379.281494,431.003296 386.951416,452.303558 384.832977,477.144592 
	C383.445465,493.414764 376.416931,507.803955 365.011505,519.320557 
	C354.027100,530.412048 340.716919,538.371704 324.726807,539.867126 
	C316.240723,540.660645 307.618835,540.002136 298.633911,539.988708 
z"/>
<path fill="#000000" opacity="1.000000" stroke="none" 
	d="
M822.805176,674.998718 
	C818.513611,674.999695 814.696228,674.999695 810.280212,674.999695 
	C810.177734,672.979187 810.012756,671.227661 810.011536,669.476013 
	C809.994568,645.332642 810.125793,621.187988 809.895691,597.046814 
	C809.848694,592.123596 811.467102,590.659058 816.197021,590.927856 
	C826.289612,591.501404 836.462219,591.123352 846.494995,592.165771 
	C856.750366,593.231384 866.712952,599.539185 868.641418,611.621643 
	C870.519348,623.387695 867.312439,632.257507 856.660034,638.720154 
	C855.972046,639.137634 855.258545,639.512939 854.238342,640.087158 
	C860.168579,651.572876 866.018616,662.903320 872.241150,674.955200 
	C866.273865,674.955200 861.002197,675.146118 855.764160,674.810608 
	C854.571106,674.734192 853.111816,673.039307 852.428711,671.744507 
	C848.875671,665.009583 845.528870,658.165771 842.119995,651.354980 
	C837.877686,642.879089 837.724548,642.803162 826.998596,644.661194 
	C826.998596,653.310547 826.924500,662.084290 827.041931,670.855408 
	C827.079102,673.635315 826.587219,675.474304 822.805176,674.998718 
M835.045715,630.482605 
	C837.443115,630.320435 839.844177,630.200012 842.237061,629.987183 
	C846.677185,629.592041 851.248474,625.528503 851.949829,621.414551 
	C853.057922,614.914673 850.947632,609.550171 846.560425,607.232117 
	C840.339966,603.945496 833.848267,605.061646 827.258545,605.253845 
	C827.258545,614.058716 827.258545,622.285034 827.258545,630.705688 
	C829.852844,630.705688 832.189819,630.705688 835.045715,630.482605 
z"/>
<path fill="#000000" opacity="1.000000" stroke="none" 
	d="
M489.746063,676.012817 
	C485.673950,674.843567 482.009033,673.683777 478.134094,672.457520 
	C478.134094,680.602417 478.134094,689.336121 478.134094,698.532593 
	C472.396027,698.532593 467.042725,698.532593 461.339661,698.532593 
	C461.339661,670.273926 461.339661,642.054077 461.339661,613.837708 
	C469.881073,611.411194 475.473114,612.626465 477.438599,617.327759 
	C490.500458,605.958740 512.825073,611.747192 516.091125,633.802246 
	C517.681030,644.538574 517.498108,654.765625 512.190613,664.601501 
	C507.654480,673.007996 499.927856,677.232910 489.746063,676.012817 
M499.901520,650.897949 
	C499.838623,643.853455 501.184052,636.644409 497.057922,630.119873 
	C494.556976,626.165100 489.647339,624.465332 484.114380,626.001404 
	C479.697784,627.227478 477.785004,630.100952 477.943146,634.770203 
	C478.167877,641.404175 477.616699,648.085571 478.202179,654.675232 
	C478.419586,657.122070 480.359772,660.319153 482.462006,661.533386 
	C490.146210,665.971680 497.078491,661.798584 499.901520,650.897949 
z"/>
<path fill="#000000" opacity="1.000000" stroke="none" 
	d="
M886.224121,665.722778 
	C872.984253,652.041992 877.287292,618.015503 901.459351,612.810608 
	C918.667969,609.105225 933.562561,616.055725 936.955261,634.724365 
	C939.724304,649.960938 939.509338,650.000000 924.239075,650.000000 
	C914.984009,650.000000 905.728882,650.000000 896.368225,650.000000 
	C898.983582,663.065674 914.997559,668.147461 928.756104,656.075012 
	C931.247131,658.986206 933.734558,661.893311 936.099304,664.656921 
	C927.381958,679.130127 898.503784,680.756287 886.224121,665.722778 
M916.193909,627.078552 
	C905.923645,622.897217 898.477356,626.958923 896.814941,637.694458 
	C904.730469,637.694458 912.634583,637.694458 920.497009,637.694458 
	C921.944519,633.105530 919.992615,630.063843 916.193909,627.078552 
z"/>
<path fill="#000000" opacity="1.000000" stroke="none" 
	d="
M528.989258,646.454956 
	C527.437927,633.489075 533.001343,621.102905 542.560852,615.791626 
	C553.700073,609.602783 568.708801,610.219421 577.749207,618.769531 
	C581.918335,622.712463 584.982483,628.794617 586.418823,634.447754 
	C589.160583,645.238098 588.061279,655.972839 581.237610,665.516663 
	C576.729980,671.821228 570.684448,674.997314 563.063782,676.093201 
	C555.605164,677.165710 548.451050,676.372009 542.226685,672.441711 
	C533.046631,666.645142 528.833984,657.774719 528.989258,646.454956 
M562.335144,662.244385 
	C566.231689,660.578064 569.187866,657.639832 569.552795,653.558899 
	C570.115784,647.263794 570.408203,640.788086 569.539490,634.567200 
	C568.740479,628.846008 562.906311,624.892029 557.825195,625.045044 
	C553.006104,625.190125 547.240112,629.311890 546.433716,634.556030 
	C545.576294,640.132263 545.263184,646.043274 546.147461,651.578857 
	C547.558594,660.411743 552.647766,663.571777 562.335144,662.244385 
z"/>
<path fill="#000000" opacity="1.000000" stroke="none" 
	d="
M955.162659,655.000122 
	C958.785706,655.000000 961.937500,655.000000 964.982666,655.000000 
	C968.256042,663.480957 980.280579,667.323181 987.826355,662.537292 
	C990.906982,660.583496 991.028442,655.388794 987.660583,654.024536 
	C983.285461,652.252136 978.533752,651.434998 974.022461,649.965942 
	C969.501465,648.493774 964.825378,647.200867 960.658508,644.995605 
	C949.161133,638.910828 948.413940,624.903748 960.102173,616.590210 
	C970.352478,609.299377 994.358459,609.676880 1002.215637,620.850037 
	C1004.262573,623.760803 1005.359680,627.339539 1007.526794,631.963684 
	C1001.135742,631.963684 996.545166,632.100342 991.975281,631.853821 
	C991.007019,631.801575 989.879150,630.505371 989.225830,629.517151 
	C985.690125,624.169128 977.700256,621.744995 972.281189,625.072144 
	C970.358032,626.252808 968.369568,629.025391 968.356934,631.083191 
	C968.346741,632.735535 970.997803,635.293762 972.949890,635.901245 
	C978.733765,637.701172 984.779236,638.641052 990.679260,640.092590 
	C997.420959,641.751221 1003.116455,645.245605 1005.728455,651.852112 
	C1008.522095,658.918152 1005.273682,667.670959 998.541626,671.654480 
	C986.059448,679.040344 963.645874,679.327148 953.690430,666.031006 
	C951.579834,663.212158 950.623901,659.528748 948.755798,655.404236 
	C951.788818,655.197754 953.240112,655.098999 955.162659,655.000122 
z"/>
<path fill="#000000" opacity="1.000000" stroke="none" 
	d="
M1045.151611,674.051025 
	C1037.240479,670.212769 1034.303223,663.600525 1034.071411,655.741882 
	C1033.777588,645.781860 1034.000366,635.806580 1034.000366,625.124451 
	C1029.309814,625.124451 1024.941895,625.124451 1020.294922,625.124451 
	C1020.294922,620.838745 1020.294922,617.267029 1020.294922,613.153931 
	C1024.711792,613.153931 1028.960693,613.153931 1033.740723,613.153931 
	C1033.740723,608.057495 1033.740723,603.480774 1033.740723,598.452637 
	C1039.621826,598.452637 1044.976562,598.452637 1050.881348,598.452637 
	C1050.881348,603.083862 1050.881348,607.667358 1050.881348,612.774170 
	C1058.640747,612.774170 1065.885742,612.774170 1073.560425,612.774170 
	C1073.560425,616.990723 1073.560425,620.675842 1073.560425,624.911011 
	C1066.215576,624.911011 1058.973267,624.911011 1051.069336,624.911011 
	C1051.069336,635.516602 1050.759888,645.614380 1051.202393,655.679138 
	C1051.417480,660.571655 1057.133301,663.597778 1063.550049,662.950928 
	C1067.132324,662.589844 1070.678711,661.874756 1074.486328,661.280945 
	C1074.661499,662.074280 1074.866577,662.836609 1074.995483,663.611633 
	C1076.685303,673.777832 1075.208862,675.597168 1064.733643,675.982361 
	C1058.257080,676.220520 1051.624634,677.905090 1045.151611,674.051025 
z"/>
<path fill="#000000" opacity="1.000000" stroke="none" 
	d="
M701.000000,631.125000 
	C701.000000,638.272278 701.405762,644.968262 700.890015,651.592468 
	C700.333679,658.738037 704.826050,663.714661 713.479492,662.948730 
	C717.067261,662.631165 720.616333,661.875916 724.465027,661.275757 
	C724.654297,662.215454 724.853760,663.131775 725.022339,664.053772 
	C726.797791,673.768250 726.864746,674.235596 717.226929,675.645447 
	C710.039612,676.696838 702.705505,677.850098 695.471619,674.291626 
	C687.626892,670.432617 684.402832,664.020264 684.094238,655.997437 
	C683.705566,645.891296 684.000610,635.758911 684.000610,625.101624 
	C679.232727,625.101624 674.979370,625.101624 670.370544,625.101624 
	C670.370544,620.991211 670.370544,617.415039 670.370544,613.113647 
	C674.692749,613.113647 679.065186,613.113647 683.966553,613.113647 
	C683.966553,607.829651 683.966553,603.242371 683.966553,598.337341 
	C689.746216,598.337341 694.985291,598.337341 700.775635,598.337341 
	C700.775635,602.977661 700.775635,607.558899 700.775635,612.856934 
	C708.662598,612.856934 716.040161,612.856934 723.696777,612.856934 
	C723.696777,617.148132 723.696777,620.722412 723.696777,624.843506 
	C716.290222,624.843506 709.041504,624.843506 701.274048,624.843506 
	C701.166565,627.117920 701.083252,628.880005 701.000000,631.125000 
z"/>
<path fill="#000000" opacity="1.000000" stroke="none" 
	d="
M627.268616,620.223267 
	C634.213745,611.715027 643.358276,611.235962 652.851562,612.150208 
	C655.798584,612.434021 657.663269,614.010315 657.007874,617.447388 
	C656.244751,621.449829 655.616394,625.478027 655.019104,628.971130 
	C648.688599,628.971130 642.836548,628.473450 637.104980,629.092346 
	C629.263000,629.939148 626.002686,634.177612 626.000732,642.007690 
	C625.997986,652.778870 626.000000,663.550049 626.000000,674.656921 
	C620.272217,674.656921 615.041016,674.656921 609.401184,674.656921 
	C609.401184,654.292053 609.401184,633.966187 609.401184,613.319031 
	C614.445557,613.319031 619.345764,613.319031 625.008545,613.319031 
	C625.008545,615.502930 624.923767,617.596985 625.098145,619.669128 
	C625.124939,619.986938 626.346497,620.204224 627.268616,620.223267 
z"/>
<path fill="#030303" opacity="1.000000" stroke="none" 
	d="
M415.774597,649.016846 
	C415.718079,657.816528 415.718079,666.271118 415.718079,674.862976 
	C409.887909,674.862976 404.910126,674.862976 398.990356,674.862976 
	C398.990356,655.203491 398.990356,635.613098 398.933533,615.561218 
	C399.618164,614.404602 400.335052,613.141418 401.105164,613.108154 
	C405.548370,612.915894 410.004211,613.014282 414.769073,613.014282 
	C414.912323,615.998474 415.029968,618.448914 415.179962,621.573608 
	C418.095642,619.270752 420.604736,617.098145 423.303802,615.195129 
	C429.833221,610.591370 437.133423,611.502625 444.320435,612.825562 
	C445.408630,613.025879 446.945648,615.315796 446.861450,616.542053 
	C446.561005,620.919189 445.651123,625.254456 445.071838,628.965088 
	C438.762177,628.965088 433.040131,628.408264 427.471344,629.094543 
	C418.928101,630.147400 416.026581,634.058472 416.005310,642.693237 
	C416.000397,644.686218 415.891937,646.678955 415.774597,649.016846 
z"/>
<path fill="#030404" opacity="1.000000" stroke="none" 
	d="
M253.087189,648.110352 
	C258.906372,630.744324 264.801056,613.402832 270.471191,595.988281 
	C271.427032,593.052551 272.492462,591.713806 275.874512,591.760193 
	C286.355865,591.904114 286.357361,591.736511 289.671814,601.551147 
	C290.095215,602.804932 290.531952,604.054199 291.089050,605.679016 
	C297.223663,624.962891 303.234222,643.872559 309.237793,662.784485 
	C310.485138,666.713745 311.706482,670.651184 313.015442,674.826172 
	C307.296722,674.826172 301.854401,674.826172 296.303802,674.826172 
	C295.041412,670.546570 293.519653,666.337708 292.610687,662.000488 
	C291.904633,658.631653 290.494385,657.471069 286.973969,657.638672 
	C280.194824,657.961426 273.389404,657.732788 266.470886,657.732788 
	C264.791382,663.543701 263.195709,669.064514 261.543335,674.781555 
	C256.068390,674.781555 250.628769,674.781555 244.612274,674.781555 
	C247.332932,666.618530 249.982025,658.670227 252.664215,650.377197 
	C252.702179,649.844177 252.707062,649.656006 252.770508,649.397827 
	C252.915131,648.921936 253.001144,648.516113 253.087189,648.110352 
M274.162598,630.264221 
	C272.988892,634.696838 271.815186,639.129395 270.570618,643.829712 
	C276.349701,643.829712 281.636230,643.829712 287.540619,643.829712 
	C285.536072,636.737183 283.616119,629.943909 281.671875,622.411926 
	C280.970154,620.073669 280.268402,617.735352 279.566681,615.397095 
	C279.243408,615.331665 278.920105,615.266296 278.596832,615.200867 
	C277.312256,620.058899 276.027649,624.916931 274.162598,630.264221 
z"/>
<path fill="#020303" opacity="1.000000" stroke="none" 
	d="
M348.939758,613.117065 
	C352.384155,613.195129 355.338379,613.195129 358.859802,613.195129 
	C358.859802,629.545044 358.859802,645.575012 358.859802,661.983154 
	C364.678375,661.983154 369.939514,661.983154 375.459045,661.983154 
	C375.459045,666.431763 375.459045,670.494446 375.459045,674.781982 
	C358.809723,674.781982 342.371765,674.781982 325.601501,674.781982 
	C325.601501,670.720520 325.601501,666.658386 325.601501,662.148438 
	C331.193634,662.148438 336.775574,662.148438 342.637939,662.148438 
	C342.637939,650.001099 342.637939,638.291992 342.637939,626.085938 
	C336.869293,626.085938 331.290985,626.085938 325.502258,626.085938 
	C325.502258,621.657166 325.502258,617.717041 325.502258,613.039062 
	C333.130371,613.039062 340.790009,613.039062 348.939758,613.117065 
z"/>
<path fill="#050707" opacity="1.000000" stroke="none" 
	d="
M357.596680,591.403809 
	C360.964539,596.611389 360.788971,600.673157 357.355286,603.755371 
	C354.218292,606.571289 347.732941,606.478516 344.413239,603.570312 
	C341.459961,600.983154 340.937897,596.231506 343.210724,592.625488 
	C345.920013,588.326965 351.680084,587.713501 357.596680,591.403809 
z"/>
<path fill="#B2EAF9" opacity="1.000000" stroke="none" 
	d="
M252.882431,648.265381 
	C253.001144,648.516113 252.915131,648.921936 252.499481,649.318604 
	C252.339127,649.013123 252.508408,648.716797 252.882431,648.265381 
z"/>
<path fill="#47704C" opacity="1.000000" stroke="none" 
	d="
M834.786255,630.594116 
	C832.189819,630.705688 829.852844,630.705688 827.258545,630.705688 
	C827.258545,622.285034 827.258545,614.058716 827.258545,605.253845 
	C833.848267,605.061646 840.339966,603.945496 846.560425,607.232117 
	C850.947632,609.550171 853.057922,614.914673 851.949829,621.414551 
	C851.248474,625.528503 846.677185,629.592041 842.237061,629.987183 
	C839.844177,630.200012 837.443115,630.320435 834.786255,630.594116 
z"/>
<path fill="#47704C" opacity="1.000000" stroke="none" 
	d="
M499.776428,651.313965 
	C497.078491,661.798584 490.146210,665.971680 482.462006,661.533386 
	C480.359772,660.319153 478.419586,657.122070 478.202179,654.675232 
	C477.616699,648.085571 478.167877,641.404175 477.943146,634.770203 
	C477.785004,630.100952 479.697784,627.227478 484.114380,626.001404 
	C489.647339,624.465332 494.556976,626.165100 497.057922,630.119873 
	C501.184052,636.644409 499.838623,643.853455 499.776428,651.313965 
z"/>
<path fill="#47704C" opacity="1.000000" stroke="none" 
	d="
M916.529907,627.267212 
	C919.992615,630.063843 921.944519,633.105530 920.497009,637.694458 
	C912.634583,637.694458 904.730469,637.694458 896.814941,637.694458 
	C898.477356,626.958923 905.923645,622.897217 916.529907,627.267212 
z"/>
<path fill="#47704C" opacity="1.000000" stroke="none" 
	d="
M561.996460,662.468811 
	C552.647766,663.571777 547.558594,660.411743 546.147461,651.578857 
	C545.263184,646.043274 545.576294,640.132263 546.433716,634.556030 
	C547.240112,629.311890 553.006104,625.190125 557.825195,625.045044 
	C562.906311,624.892029 568.740479,628.846008 569.539490,634.567200 
	C570.408203,640.788086 570.115784,647.263794 569.552795,653.558899 
	C569.187866,657.639832 566.231689,660.578064 561.996460,662.468811 
z"/>
<path fill="#B2EAF9" opacity="1.000000" stroke="none" 
	d="
M281.696167,623.150574 
	C283.616119,629.943909 285.536072,636.737183 287.540619,643.829712 
	C281.636230,643.829712 276.349701,643.829712 270.570618,643.829712 
	C271.815186,639.129395 272.988892,634.696838 274.784393,629.976257 
	C277.502838,627.509094 279.599487,625.329834 281.696167,623.150574 
z"/>
<path fill="#AEA1EA" opacity="1.000000" stroke="none" 
	d="
M281.684021,622.781250 
	C279.599487,625.329834 277.502838,627.509094 275.074646,629.731628 
	C276.027649,624.916931 277.312256,620.058899 278.596832,615.200867 
	C278.920105,615.266296 279.243408,615.331665 279.566681,615.397095 
	C280.268402,617.735352 280.970154,620.073669 281.684021,622.781250 
z"/>
</svg>