<svg
              width="100"
              height="100"
              viewBox="0 0 24 24"
              fill="none"
              xmlns="http://www.w3.org/2000/svg"
            >
              <rect
                x="5.05"
                y="5.05"
                width="3.9"
                height="3.9"
                rx="0.95"
                fill="#FAFF00"
                stroke="black"
                stroke-width="0.1"
              />
              <rect
                x="5.05"
                y="10.05"
                width="3.9"
                height="3.9"
                rx="0.95"
                fill="#4BEE3D"
                stroke="black"
                stroke-width="0.1"
              />
              <rect
                x="5.05"
                y="15.05"
                width="3.9"
                height="3.9"
                rx="0.95"
                fill="#2FE8F4"
                stroke="black"
                stroke-width="0.1"
              />
              <rect
                x="10.05"
                y="5.05"
                width="3.9"
                height="3.9"
                rx="0.95"
                fill="#F88804"
                stroke="black"
                stroke-width="0.1"
              />
              <rect
                x="10.05"
                y="15.05"
                width="3.9"
                height="3.9"
                rx="0.95"
                fill="#3A58F4"
                stroke="black"
                stroke-width="0.1"
              />
              <rect
                x="15.05"
                y="5.05"
                width="3.9"
                height="3.9"
                rx="0.95"
                fill="#FA610B"
                stroke="black"
                stroke-width="0.1"
              />
              <rect
                x="15.05"
                y="10.05"
                width="3.9"
                height="3.9"
                rx="0.95"
                fill="#F52B2B"
                stroke="black"
                stroke-width="0.1"
              />
              <rect
                x="15.05"
                y="15.05"
                width="3.9"
                height="3.9"
                rx="0.95"
                fill="#FF54BB"
                stroke="black"
                stroke-width="0.1"
              />
              <path
                d="M10.0115 13.0088L9.78369 13.0183C9.76367 13.0183 9.75171 13.0146 9.7478 13.0073C9.7439 13.0005 9.74194 12.9849 9.74194 12.9604C9.74194 12.936 9.74463 12.9216 9.75 12.9172C9.75586 12.9124 9.771 12.9099 9.79541 12.9099H9.8855C9.90356 12.9099 10.0361 12.6084 10.2832 12.0054C10.3042 11.9551 10.3157 11.9277 10.3176 11.9233L10.6355 11.1851C10.6433 11.1646 10.6604 11.1382 10.6868 11.106C10.7136 11.0732 10.7346 11.0403 10.7498 11.0071C10.7727 10.9568 10.7927 10.9312 10.8098 10.9302C10.8303 10.9302 10.8423 10.9392 10.8457 10.9573L11.2053 11.968C11.4319 12.5959 11.552 12.9099 11.5657 12.9099H11.6704C11.6846 12.9099 11.6936 12.9133 11.6975 12.9202C11.7014 12.9265 11.7034 12.9404 11.7034 12.9619C11.7034 12.9834 11.7014 12.998 11.6975 13.0059C11.6936 13.0142 11.6846 13.0183 11.6704 13.0183L11.3914 13.0088L11.0464 13.0183C11.0288 13.0183 11.0178 13.0144 11.0134 13.0066C11.0095 12.9993 11.0076 12.9836 11.0076 12.9597C11.0076 12.9358 11.01 12.9216 11.0149 12.9172C11.0203 12.9124 11.0349 12.9099 11.0588 12.9099H11.2236C11.2256 12.9099 11.2266 12.9028 11.2266 12.8887C11.2266 12.8745 11.2014 12.7898 11.1511 12.6345C11.1013 12.4792 11.0645 12.3677 11.0405 12.2998C11.0171 12.2319 11.0034 12.1958 10.9995 12.1914C10.9956 12.1865 10.9863 12.1841 10.9717 12.1841H10.366C10.345 12.1841 10.3311 12.1868 10.3242 12.1921C10.3179 12.1975 10.3108 12.2107 10.303 12.2317C10.1428 12.6365 10.0618 12.8616 10.0598 12.907L10.0627 12.9099H10.2935C10.3101 12.9099 10.3201 12.9131 10.3235 12.9194C10.3274 12.9253 10.3293 12.936 10.3293 12.9517C10.3293 12.9673 10.3291 12.9775 10.3286 12.9824C10.3286 12.9868 10.3281 12.9922 10.3271 12.9985C10.3262 13.0044 10.3242 13.0083 10.3213 13.0103C10.3154 13.0156 10.3062 13.0183 10.2935 13.0183L10.0115 13.0088ZM10.9387 12.094C10.9568 12.094 10.9658 12.0911 10.9658 12.0852C10.9658 12.0789 10.9626 12.0679 10.9563 12.0522L10.708 11.3228C10.7012 11.2988 10.6956 11.2869 10.6912 11.2869C10.6868 11.2869 10.6802 11.2988 10.6714 11.3228L10.3777 12.0427C10.3674 12.0676 10.3623 12.0825 10.3623 12.0874C10.3623 12.0918 10.3755 12.094 10.4019 12.094H10.9387ZM12.0959 13.033C12.0642 13.033 12.0278 13.0154 11.9868 12.9802C11.9463 12.9451 11.926 12.9121 11.926 12.8813C11.926 12.8506 11.9426 12.8127 11.9758 12.7678C12.009 12.7224 12.0376 12.6997 12.0615 12.6997C12.0854 12.6997 12.1111 12.7063 12.1384 12.7195C12.1663 12.7322 12.1914 12.7507 12.2139 12.7751C12.2363 12.7991 12.2476 12.8232 12.2476 12.8477C12.2476 12.8716 12.2422 12.8953 12.2314 12.9187C12.2212 12.9417 12.2087 12.9614 12.1941 12.978C12.1609 13.0146 12.1282 13.033 12.0959 13.033ZM12.7896 12.1328C12.7896 11.4487 12.7795 11.1067 12.7595 11.1067L12.5852 11.1133C12.5642 11.1133 12.5496 11.1089 12.5413 11.1001C12.533 11.0913 12.5288 11.0754 12.5288 11.0525C12.5288 11.0295 12.5332 11.0149 12.542 11.0085C12.5508 11.0022 12.5662 10.999 12.5881 10.999L12.9368 11.0049L13.3718 10.9873C13.7322 10.9873 13.946 11.1055 14.0134 11.3418C14.0276 11.3916 14.0347 11.4412 14.0347 11.4905C14.0347 11.5393 14.0291 11.5823 14.0178 11.6194C14.0071 11.656 13.9932 11.689 13.9761 11.7183C13.959 11.7471 13.938 11.7751 13.9131 11.8025C13.8887 11.8293 13.8645 11.8528 13.8406 11.8728C13.8167 11.8923 13.7905 11.9111 13.7622 11.9292C13.7192 11.957 13.6826 11.978 13.6523 11.9922C13.6221 12.0063 13.6067 12.0142 13.6062 12.0156C13.6057 12.0171 13.6169 12.0217 13.6399 12.0295C13.6633 12.0369 13.6885 12.0461 13.7153 12.0574C13.7427 12.0686 13.7737 12.0842 13.8083 12.1042C13.8435 12.1243 13.875 12.1462 13.9028 12.1702C13.9307 12.1936 13.9587 12.2236 13.9871 12.2603C14.0159 12.2964 14.04 12.3359 14.0596 12.3789C14.104 12.4761 14.1287 12.5911 14.1335 12.7239C14.1375 12.8367 14.1423 12.896 14.1482 12.9019C14.1545 12.9072 14.1606 12.9099 14.1665 12.9099H14.3042C14.3213 12.9099 14.333 12.915 14.3394 12.9253C14.3462 12.9351 14.3496 12.9551 14.3496 12.9854C14.3496 13.0073 14.3335 13.0183 14.3013 13.0183L13.8904 13.0088C13.8684 13.0088 13.8574 12.9978 13.8574 12.9758V12.8022C13.8574 12.5996 13.8408 12.4541 13.8076 12.3657C13.772 12.2695 13.7222 12.2002 13.6582 12.1577C13.5781 12.104 13.4746 12.0757 13.3477 12.0728L13.0715 12.0698C13.0554 12.0698 13.0474 12.0779 13.0474 12.094C13.0474 12.2014 13.051 12.3643 13.0583 12.5825C13.0662 12.8008 13.0735 12.9099 13.0803 12.9099H13.2546C13.2717 12.9099 13.283 12.9133 13.2883 12.9202C13.2937 12.927 13.2964 12.9409 13.2964 12.9619C13.2964 12.9829 13.2937 12.9976 13.2883 13.0059C13.283 13.0142 13.2717 13.0183 13.2546 13.0183L12.9302 13.0088L12.6365 13.0183C12.6155 13.0183 12.6016 13.0142 12.5947 13.0059C12.5884 12.998 12.5852 12.9827 12.5852 12.9597C12.5852 12.9368 12.5891 12.9229 12.5969 12.918C12.6052 12.9126 12.6223 12.9099 12.6482 12.9099H12.7778C12.7856 12.9099 12.7896 12.7839 12.7896 12.532V12.1328ZM13.0627 11.0891C13.0525 11.0891 13.0474 11.1401 13.0474 11.2422V11.9709C13.0474 11.9812 13.0603 11.9863 13.0862 11.9863L13.4707 11.9922C13.4868 11.9922 13.4978 11.9912 13.5037 11.9893C13.6755 11.9092 13.7615 11.7622 13.7615 11.5483C13.7615 11.3818 13.6838 11.2534 13.5286 11.1631C13.4363 11.1099 13.343 11.0833 13.2488 11.0833C13.1545 11.0833 13.0925 11.0852 13.0627 11.0891Z"
                fill="black"
              />
            </svg>